<?xml version="1.0" encoding="utf-8"?>
<!-- Generator: Adobe Illustrator 18.0.0, SVG Export Plug-In . SVG Version: 6.00 Build 0)  -->
<!DOCTYPE svg PUBLIC "-//W3C//DTD SVG 1.1//EN" "http://www.w3.org/Graphics/SVG/1.1/DTD/svg11.dtd">
<svg version="1.1" id="Layer_1" xmlns="http://www.w3.org/2000/svg" xmlns:xlink="http://www.w3.org/1999/xlink" x="0px" y="0px"
	 viewBox="0 0 323.6 188" enable-background="new 0 0 323.6 188" xml:space="preserve">
<path fill="#FFFFFF" d="M323.4,83.5h-9.7h-22.9v37.6l-11.6-12.3l-14.9,12.2L263.7,82l-33.6,16.9l-2.5,25.9
	c5.1,4.9,8.8,12.6,8.8,24.7c-0.6,10.8-5.8,18.1-13.4,23l-1.5,15.4h44.2l14.3-17.9l8.1,13.3h0l2.9,4.7h32.6L323.4,83.5z"/>
<path fill="#FFFFFF" d="M40.1,188c0.6,0,1.2,0,1.8-0.1c0.6,0,1.2-0.1,1.9-0.1c0.2,0,0.5,0,0.7-0.1c0.4,0,0.7-0.1,1.1-0.1
	c0.3,0,0.6-0.1,0.9-0.1c0.2,0,0.5-0.1,0.7-0.1c0.4-0.1,0.8-0.1,1.2-0.2c0.1,0,0.1,0,0.2,0c6.3-1,11.9-3.1,17.1-6.2h0.1
	c1.6-1,3.1-2,4.6-3.2c9.1-7.2,13.7-16.8,13.7-28.8c0-3.1,0.2-6.6-1.1-10.1c-3.1-8.4-10.4-14.5-22.4-29.1C50.3,97.3,46.5,87.5,47,82
	c0.9-7.9,3.7-12,8.4-12.3c1.4,0,2.8,0.5,4.1,1.4c1.3,1,1.9,2.2,1.7,3.6c0,4.3-1.6,6.5-4.7,6.5c-0.2,0-0.7-0.1-1.6-0.3h-1.8
	c3,8.9,7.9,13.1,14.7,12.6c4.9-0.2,9-2.9,12.3-7.9c3.3-5,4.6-10.9,3.9-17.7c-1.6-17.3-12.4-25.5-32.6-24.5
	C39.6,43.9,30,48.1,22.6,56c-5.8,6.3-9,13.2-9.7,20.9c-0.9,10.1,1.1,19.7,5.8,28.8c5.5,9,11.5,11.4,19,19c6.3,6.4,8.2,12.8,8.4,16.6
	c0.4,5.3-0.9,9.6-3.8,13c-2.9,3.4-7,4.8-12.2,4.3c-4.9-0.5-7.4-2.6-7.6-6.5c-0.4-5.3,1.5-8.2,5.5-8.7c4.2-0.5,7.1,0.7,8.7,3.6
	c0.2-1.4,0.3-3,0.3-4.7c0-12-4.1-18.3-12.3-18.8c-7.2-0.5-13,2.1-17.3,7.7c-4.4,5.7-6.7,12.6-7.1,20.7c-0.5,13.2,4,23,13.7,29.2
	c6,3.8,13.1,5.9,21.4,6.4l0,0C36.7,188,38.4,188,40.1,188"/>
<path fill="#FFFFFF" d="M120.5,135.7c0.2-0.4,0.4-0.8,0.7-1.2c0.2-0.4,0.5-0.9,0.7-1.3c0.1-0.2,0.2-0.4,0.3-0.6
	c0.3-0.5,0.5-1,0.8-1.5l2.2-44.5h21.8V62.7l20-2V26.9l-79.8,1.9l1.7,127l29.7-17c0.4-0.7,0.9-1.4,1.3-2.1
	C120.1,136.4,120.3,136,120.5,135.7"/>
<path fill="#FFFFFF" d="M230.3,149c0-26.2-21.2-28.9-29.9-28.9h-3.2c6-2.2,19.5-1.7,19.5-29.1c0-20.9-23.1-23.9-43.3-23.9
	c-7.9,0-15.3,0.5-20.7,0.5v108.9c0,0,8.5,1.1,19.9,1.1C195.2,177.6,228.9,174.9,230.3,149"/>
<path fill="#D4591D" d="M264.3,120.9l14.9-12.2l11.6,12.3V83.5h22.9c0-7.7-0.1-15.2-0.1-21.5l-0.1-16.8L313.4,0l-23.5,2.8l-0.1,21.8
	l0,25l-1.7-0.6c0,0,0-24.8,0-24.8l-22.8,0.6l0.2,11.9c-2,9.8-5.3,18.2-9.1,25.2c-0.1,0.2-0.2,0.4-0.3,0.6c-0.2,0.4-0.5,0.9-0.7,1.3
	c-0.2,0.4-0.4,0.8-0.7,1.2c-0.2,0.3-0.4,0.7-0.6,1c-0.4,0.7-0.9,1.4-1.3,2.1c-3.1,4.9-6.3,8.9-9.3,12.2c-6.9,4-12.9,7.4-13.5,7.5
	v11.1L263.7,82L264.3,120.9z M306.8,9.5l-1.6,23.8l-8.7,0.3l-0.2-24L306.8,9.5z M305.4,43l0.8,14.5l-9.3,1l-1-14.8L305.4,43z
	 M271.5,91.9l-0.1-22.4l13.2-0.1l1.3,23.5L271.5,91.9z M284.3,34l1.7,23.3L272,56l-1.1-22.4L284.3,34z M265.6,42.5l0.4,24.7
	c0,0-6.9,4.1-14.7,8.7C259.8,65.4,263.8,52.6,265.6,42.5"/>
</svg>
